<!-- Generated by IcoMoon.io -->
<svg version="1.1" xmlns="http://www.w3.org/2000/svg" width="63" height="32" viewBox="0 0 63 32">
<title>logo-6</title>
<path fill="#afb1b8" d="M31.815 14.712c-0.297-0.42-0.439-0.917-0.406-1.417v-2.055c0-0.63 0.134-1.109 0.403-1.436s0.731-0.491 1.386-0.489c0.615 0 1.052 0.139 1.31 0.418 0.282 0.356 0.419 0.791 0.387 1.229v0.483h-1.101v-0.489c0.004-0.16-0.007-0.32-0.032-0.479-0.016-0.108-0.071-0.209-0.157-0.284-0.113-0.082-0.255-0.121-0.399-0.111-0.151-0.010-0.3 0.031-0.419 0.117-0.096 0.084-0.16 0.194-0.182 0.314-0.032 0.168-0.046 0.338-0.043 0.508v2.494c-0.017 0.241 0.031 0.481 0.141 0.7 0.055 0.074 0.131 0.133 0.22 0.17s0.187 0.050 0.284 0.039c0.141 0.011 0.281-0.030 0.39-0.113 0.090-0.082 0.147-0.188 0.164-0.303 0.026-0.165 0.037-0.332 0.034-0.5v-0.506h1.101v0.462c0.031 0.457-0.103 0.911-0.381 1.292-0.253 0.305-0.684 0.458-1.317 0.458s-1.112-0.163-1.383-0.502z"></path>
<path fill="#afb1b8" d="M36.399 14.733c-0.278-0.32-0.417-0.786-0.417-1.403v-2.162c0-0.61 0.139-1.072 0.417-1.386s0.743-0.47 1.395-0.468c0.647 0 1.11 0.156 1.388 0.468 0.278 0.314 0.419 0.776 0.419 1.386v2.162c0 0.61-0.141 1.079-0.424 1.401s-0.743 0.483-1.383 0.483c-0.64 0-1.114-0.163-1.395-0.481zM38.306 14.214c0.1-0.2 0.145-0.42 0.132-0.64v-2.647c0.013-0.216-0.032-0.431-0.13-0.627-0.056-0.076-0.134-0.135-0.225-0.172s-0.192-0.050-0.29-0.037c-0.099-0.013-0.2 0-0.291 0.037s-0.17 0.096-0.226 0.172c-0.1 0.196-0.146 0.411-0.132 0.627v2.659c-0.014 0.22 0.032 0.44 0.132 0.64 0.064 0.067 0.143 0.121 0.232 0.159s0.185 0.056 0.283 0.056c0.098 0 0.194-0.019 0.283-0.056s0.168-0.091 0.232-0.159v-0.012z"></path>
<path fill="#afb1b8" d="M40.925 9.377h1.185l0.891 3.988 0.912-3.988h1.153l0.116 5.756h-0.852l-0.091-4.001-0.88 4.001h-0.684l-0.912-4.015-0.084 4.015h-0.861l0.107-5.756z"></path>
<path fill="#afb1b8" d="M46.511 9.377h1.846c1.064 0 1.595 0.545 1.595 1.634 0 1.044-0.56 1.565-1.68 1.564h-0.629v2.558h-1.139l0.007-5.756zM48.088 11.837c0.113 0.013 0.227 0.004 0.335-0.028s0.208-0.084 0.292-0.154c0.131-0.194 0.188-0.423 0.164-0.65 0.006-0.176-0.012-0.351-0.055-0.523-0.016-0.057-0.045-0.111-0.084-0.158s-0.088-0.086-0.144-0.116c-0.158-0.070-0.333-0.101-0.508-0.092h-0.442v1.72h0.442z"></path>
<path fill="#afb1b8" d="M51.595 9.377h1.224l1.256 5.756h-1.062l-0.248-1.327h-1.092l-0.255 1.327h-1.078l1.256-5.756zM52.641 13.14l-0.426-2.416-0.426 2.416h0.852z"></path>
<path fill="#afb1b8" d="M55.089 9.377h0.798l1.527 3.284v-3.284h0.946v5.756h-0.759l-1.536-3.428v3.428h-0.978l0.002-5.756z"></path>
<path fill="#afb1b8" d="M60.575 12.939l-1.269-3.553h1.069l0.775 2.283 0.727-2.283h1.046l-1.253 3.553v2.195h-1.094v-2.195z"></path>
<path fill="#afb1b8" d="M33.575 17.651v0.301h-0.93v2.339h-0.39v-2.339h-0.934v-0.301h2.254z"></path>
<path fill="#afb1b8" d="M36.49 20.291h-0.301c-0.031 0.002-0.061-0.007-0.084-0.025-0.023-0.015-0.040-0.036-0.050-0.061l-0.269-0.627h-1.29l-0.269 0.627c-0.008 0.026-0.022 0.050-0.041 0.071-0.024 0.017-0.054 0.026-0.084 0.025h-0.301l1.14-2.64h0.397l1.153 2.63zM34.603 19.311h1.076l-0.456-1.074c-0.034-0.081-0.062-0.164-0.084-0.249-0.016 0.050-0.030 0.098-0.043 0.14l-0.041 0.111-0.451 1.072z"></path>
<path fill="#afb1b8" d="M38.454 20.032c0.071 0.003 0.143 0.003 0.214 0 0.062-0.006 0.123-0.016 0.182-0.031 0.056-0.012 0.111-0.029 0.164-0.048 0.050-0.019 0.1-0.042 0.153-0.065v-0.594h-0.456c-0.011 0.001-0.023-0.001-0.033-0.005s-0.020-0.009-0.028-0.016c-0.008-0.006-0.013-0.013-0.017-0.022s-0.006-0.017-0.005-0.026v-0.203h0.884v1.012c-0.072 0.047-0.148 0.089-0.228 0.125-0.081 0.037-0.166 0.067-0.253 0.090-0.093 0.025-0.188 0.043-0.285 0.054-0.111 0.011-0.222 0.017-0.333 0.017-0.197 0.002-0.392-0.032-0.574-0.098-0.171-0.063-0.326-0.157-0.456-0.276-0.127-0.12-0.227-0.262-0.294-0.418-0.072-0.175-0.107-0.361-0.105-0.548-0.002-0.188 0.032-0.375 0.103-0.552 0.066-0.156 0.166-0.299 0.294-0.418 0.13-0.119 0.285-0.212 0.456-0.274 0.195-0.067 0.402-0.101 0.611-0.098 0.106-0 0.212 0.008 0.317 0.023 0.093 0.014 0.184 0.036 0.271 0.067 0.080 0.027 0.156 0.063 0.228 0.105 0.070 0.041 0.136 0.087 0.198 0.138l-0.109 0.163c-0.009 0.015-0.021 0.027-0.037 0.036s-0.034 0.014-0.052 0.014c-0.025-0.001-0.050-0.008-0.071-0.021-0.034-0.017-0.071-0.038-0.112-0.063-0.048-0.028-0.1-0.052-0.153-0.071-0.068-0.025-0.138-0.044-0.21-0.059-0.095-0.016-0.192-0.024-0.289-0.023-0.15-0.002-0.3 0.023-0.44 0.073-0.127 0.047-0.241 0.118-0.335 0.209-0.094 0.095-0.167 0.207-0.212 0.328-0.102 0.286-0.102 0.594 0 0.88 0.050 0.124 0.128 0.237 0.228 0.332 0.093 0.091 0.207 0.162 0.333 0.209 0.145 0.046 0.299 0.063 0.451 0.052z"></path>
<path fill="#afb1b8" d="M42.087 19.99h1.244v0.301h-1.625v-2.64h0.39l-0.009 2.339z"></path>
<path fill="#afb1b8" d="M44.626 20.291h-0.39v-2.64h0.39v2.64z"></path>
<path fill="#afb1b8" d="M46.076 17.663c0.023 0.012 0.043 0.029 0.059 0.048l1.666 1.99c-0.002-0.031-0.002-0.063 0-0.094 0-0.029 0-0.059 0-0.086v-1.881h0.34v2.651h-0.196c-0.029 0.002-0.058-0.003-0.084-0.015-0.024-0.013-0.044-0.030-0.062-0.050l-1.664-1.988c0 0.031 0 0.061 0 0.090s0 0.056 0 0.081v1.881h-0.326v-2.64h0.203c0.022 0 0.044 0.004 0.064 0.012z"></path>
<path fill="#afb1b8" d="M51.010 17.651v0.291h-1.381v0.872h1.119v0.28h-1.119v0.901h1.381v0.291h-1.782v-2.634h1.782z"></path>
<path fill="#afb1b8" d="M10.171 1.346l17.305 4.507v15.793l-17.305-4.505v-15.795zM9.061 0v17.908l19.522 5.086v-17.906l-19.522-5.088z"></path>
<path fill="#afb1b8" d="M19.525 31.307l-19.525-5.090v-17.906l19.525 5.088v17.908z"></path>
<path fill="#afb1b8" d="M9.385 1.143l17.079 4.45-7.263 6.664-17.081-4.452 7.266-6.662zM9.061 0l-9.061 8.311 19.525 5.088 9.059-8.311-19.522-5.088z"></path>
<path fill="#afb1b8" d="M20.623 30.299l7.961-7.303-7.961-2.076v9.379z"></path>
</svg>
