<!-- Generated by IcoMoon.io -->
<svg version="1.1" xmlns="http://www.w3.org/2000/svg" width="30" height="32" viewBox="0 0 30 32">
<title>logo-1</title>
<path fill="#afb1b8" d="M4 0l4.872 4.468h13.59v12.465l4.872 4.468v-21.401h-23.333z"></path>
<path fill="#afb1b8" d="M0 4.28v20.79h22.667v-8.264l-13.651-12.521-9.015-0.005zM18.349 22.029h-14.762v-13.982h1.043v13.035h13.719v0.947z"></path>
<path fill="#afb1b8" d="M6.527 28.991l0.545-1.123h0.456l-0.794 1.497v0.872h-0.413v-0.872l-0.796-1.497h0.457l0.545 1.123zM8.868 29.686h-0.918l-0.192 0.552h-0.428l0.895-2.37h0.369l0.897 2.37h-0.43l-0.194-0.552zM8.065 29.354h0.687l-0.343-0.983-0.343 0.983zM10.491 29.598c0-0.11 0.030-0.21 0.090-0.301 0.060-0.092 0.177-0.201 0.353-0.327-0.092-0.116-0.157-0.215-0.194-0.296-0.036-0.081-0.054-0.16-0.054-0.236 0-0.186 0.056-0.332 0.169-0.439 0.113-0.109 0.265-0.163 0.456-0.163 0.173 0 0.314 0.051 0.423 0.153 0.111 0.101 0.166 0.226 0.166 0.376 0 0.099-0.025 0.19-0.075 0.273-0.050 0.082-0.132 0.165-0.246 0.247l-0.161 0.117 0.457 0.54c0.066-0.13 0.099-0.275 0.099-0.435h0.343c0 0.292-0.068 0.531-0.205 0.718l0.348 0.412h-0.459l-0.133-0.158c-0.169 0.127-0.371 0.19-0.605 0.19s-0.422-0.062-0.563-0.186c-0.14-0.125-0.21-0.287-0.21-0.487zM11.275 29.954c0.133 0 0.258-0.044 0.374-0.133l-0.518-0.61-0.050 0.036c-0.13 0.099-0.195 0.212-0.195 0.339 0 0.11 0.035 0.199 0.106 0.267s0.165 0.103 0.283 0.103zM11.057 28.428c0 0.091 0.056 0.206 0.168 0.343l0.181-0.124 0.050-0.041c0.067-0.060 0.101-0.136 0.101-0.23 0-0.062-0.023-0.114-0.070-0.158-0.047-0.044-0.106-0.067-0.177-0.067-0.077 0-0.138 0.026-0.184 0.078s-0.068 0.118-0.068 0.197zM15.362 29.466c-0.024 0.253-0.117 0.45-0.28 0.592-0.163 0.141-0.379 0.212-0.649 0.212-0.189 0-0.355-0.045-0.5-0.133-0.143-0.090-0.254-0.218-0.332-0.383s-0.119-0.356-0.122-0.575v-0.221c0-0.224 0.040-0.42 0.119-0.591s0.193-0.302 0.34-0.394c0.149-0.092 0.32-0.138 0.514-0.138 0.262 0 0.472 0.071 0.632 0.213s0.252 0.343 0.278 0.602h-0.41c-0.020-0.17-0.069-0.293-0.15-0.368-0.079-0.076-0.196-0.114-0.35-0.114-0.179 0-0.317 0.066-0.413 0.197-0.095 0.13-0.144 0.322-0.146 0.575v0.21c0 0.256 0.046 0.451 0.137 0.586s0.227 0.202 0.404 0.202c0.162 0 0.283-0.036 0.365-0.109s0.133-0.194 0.155-0.363h0.41zM17.623 29.115c0 0.232-0.040 0.436-0.12 0.612-0.080 0.175-0.195 0.309-0.345 0.404-0.149 0.093-0.32 0.14-0.514 0.14-0.192 0-0.364-0.047-0.514-0.14-0.15-0.094-0.266-0.228-0.348-0.402-0.081-0.174-0.123-0.374-0.124-0.601v-0.133c0-0.231 0.041-0.435 0.122-0.612 0.082-0.177 0.198-0.312 0.347-0.405 0.15-0.094 0.321-0.142 0.514-0.142s0.364 0.047 0.513 0.14c0.15 0.092 0.265 0.226 0.347 0.4 0.081 0.174 0.123 0.376 0.124 0.607v0.132zM17.211 28.991c0-0.263-0.050-0.464-0.15-0.604-0.099-0.14-0.239-0.21-0.422-0.21-0.178 0-0.317 0.070-0.418 0.21-0.1 0.139-0.151 0.336-0.153 0.591v0.137c0 0.26 0.050 0.462 0.151 0.604 0.102 0.142 0.243 0.213 0.423 0.213 0.182 0 0.322-0.069 0.42-0.208 0.099-0.139 0.148-0.342 0.148-0.609v-0.124z"></path>
</svg>
