<!-- Generated by IcoMoon.io -->
<svg version="1.1" xmlns="http://www.w3.org/2000/svg" width="64" height="32" viewBox="0 0 64 32">
<title>logo-4</title>
<path fill="#afb1b8" d="M9.964 9.702h-0.002c-1.818 0-3.291 1.351-3.291 3.019v0.002c0 1.667 1.474 3.019 3.291 3.019h0.002c1.818 0 3.291-1.351 3.291-3.019v-0.002c0-1.667-1.473-3.019-3.291-3.019z"></path>
<path fill="#afb1b8" d="M34.256 8.737c-0.005-2.315-1.010-4.535-2.795-6.172s-4.204-2.56-6.729-2.565v0c-2.525 0.004-4.946 0.926-6.732 2.564s-2.791 3.858-2.797 6.174v12.769c0 0 19.050-1.946 19.052-12.767v-0.002z"></path>
<path fill="#afb1b8" d="M0 25.697c0.005 1.611 0.704 3.155 1.946 4.294s2.925 1.782 4.682 1.786c1.756-0.005 3.439-0.647 4.681-1.786s1.942-2.682 1.947-4.293v-8.885c0 0-13.256 1.355-13.256 8.883zM6.628 27.289c-0.343 0-0.679-0.093-0.964-0.268s-0.508-0.424-0.639-0.714c-0.131-0.291-0.166-0.611-0.099-0.92s0.232-0.592 0.475-0.815c0.243-0.223 0.552-0.374 0.889-0.436s0.686-0.030 1.003 0.091c0.317 0.12 0.588 0.324 0.779 0.586s0.293 0.57 0.293 0.884c0.001 0.209-0.043 0.417-0.13 0.611s-0.215 0.37-0.376 0.518-0.353 0.266-0.564 0.347c-0.211 0.080-0.437 0.122-0.666 0.122v-0.006z"></path>
<path fill="#afb1b8" d="M20.090 26.404h-1.317v1.36h-0.686v-3.329h2.168v0.556h-1.482v0.86h1.317v0.553zM23.387 26.176c0 0.328-0.058 0.615-0.174 0.862s-0.282 0.437-0.498 0.572c-0.215 0.134-0.462 0.201-0.741 0.201-0.276 0-0.522-0.066-0.738-0.199s-0.384-0.322-0.503-0.567c-0.119-0.247-0.179-0.53-0.181-0.851v-0.165c0-0.328 0.059-0.616 0.176-0.864 0.119-0.25 0.286-0.441 0.501-0.574 0.216-0.134 0.463-0.201 0.741-0.201s0.524 0.067 0.739 0.201c0.216 0.133 0.383 0.324 0.501 0.574 0.119 0.248 0.178 0.536 0.178 0.862v0.149zM22.692 26.025c0-0.349-0.063-0.614-0.188-0.796s-0.303-0.272-0.535-0.272c-0.23 0-0.408 0.090-0.533 0.27-0.125 0.178-0.188 0.441-0.19 0.787v0.162c0 0.34 0.063 0.604 0.187 0.791s0.305 0.281 0.54 0.281c0.23 0 0.407-0.090 0.53-0.27 0.123-0.181 0.186-0.445 0.188-0.791v-0.162zM25.612 26.891c0-0.13-0.046-0.229-0.137-0.297-0.091-0.070-0.256-0.143-0.494-0.219-0.238-0.078-0.426-0.154-0.565-0.229-0.378-0.204-0.567-0.479-0.567-0.825 0-0.18 0.050-0.34 0.151-0.48 0.102-0.142 0.248-0.252 0.437-0.332 0.191-0.079 0.404-0.119 0.64-0.119 0.238 0 0.45 0.043 0.636 0.13 0.186 0.085 0.33 0.207 0.432 0.364 0.104 0.157 0.155 0.335 0.155 0.535h-0.686c0-0.152-0.048-0.271-0.144-0.354-0.096-0.085-0.231-0.128-0.405-0.128-0.168 0-0.298 0.036-0.391 0.107-0.093 0.070-0.139 0.163-0.139 0.279 0 0.108 0.054 0.199 0.162 0.272 0.11 0.073 0.271 0.142 0.483 0.206 0.39 0.117 0.674 0.263 0.853 0.437s0.268 0.39 0.268 0.649c0 0.288-0.109 0.514-0.327 0.679-0.218 0.163-0.511 0.245-0.88 0.245-0.256 0-0.489-0.046-0.7-0.139-0.21-0.095-0.371-0.223-0.483-0.386-0.11-0.163-0.165-0.352-0.165-0.567h0.688c0 0.367 0.219 0.551 0.659 0.551 0.163 0 0.29-0.033 0.382-0.098 0.091-0.067 0.137-0.16 0.137-0.279zM29.273 24.991h-1.020v2.774h-0.686v-2.774h-1.006v-0.556h2.712v0.556zM31.669 26.322h-1.317v0.892h1.546v0.551h-2.232v-3.329h2.227v0.556h-1.541v0.793h1.317v0.537zM33.533 26.546h-0.547v1.219h-0.686v-3.329h1.237c0.393 0 0.697 0.088 0.91 0.263s0.32 0.423 0.32 0.743c0 0.227-0.049 0.417-0.149 0.569-0.098 0.151-0.246 0.271-0.446 0.361l0.72 1.36v0.032h-0.736l-0.624-1.219zM32.986 25.99h0.553c0.172 0 0.306-0.043 0.4-0.13 0.095-0.088 0.142-0.21 0.142-0.364 0-0.157-0.045-0.28-0.135-0.37-0.088-0.090-0.225-0.135-0.409-0.135h-0.551v0.999zM37.144 26.592v1.173h-0.686v-3.329h1.299c0.25 0 0.47 0.046 0.659 0.137 0.191 0.091 0.337 0.222 0.439 0.391 0.102 0.168 0.153 0.359 0.153 0.574 0 0.326-0.112 0.584-0.336 0.773-0.223 0.188-0.531 0.281-0.926 0.281h-0.601zM37.144 26.036h0.613c0.181 0 0.319-0.043 0.414-0.128 0.096-0.085 0.144-0.207 0.144-0.366 0-0.163-0.048-0.295-0.144-0.396s-0.229-0.152-0.398-0.155h-0.629v1.045zM41.483 26.322h-1.317v0.892h1.546v0.551h-2.232v-3.329h2.227v0.556h-1.541v0.793h1.317v0.537zM44.666 24.991h-1.020v2.774h-0.686v-2.774h-1.006v-0.556h2.712v0.556zM47.063 26.322h-1.317v0.892h1.546v0.551h-2.232v-3.329h2.227v0.556h-1.541v0.793h1.317v0.537zM48.926 26.546h-0.547v1.219h-0.686v-3.329h1.237c0.393 0 0.697 0.088 0.91 0.263s0.32 0.423 0.32 0.743c0 0.227-0.050 0.417-0.149 0.569-0.098 0.151-0.246 0.271-0.446 0.361l0.72 1.36v0.032h-0.736l-0.624-1.219zM48.38 25.99h0.553c0.172 0 0.306-0.043 0.4-0.13 0.094-0.088 0.142-0.21 0.142-0.364 0-0.157-0.045-0.28-0.135-0.37-0.088-0.090-0.225-0.135-0.409-0.135h-0.551v0.999zM52.411 26.891c0-0.13-0.046-0.229-0.137-0.297-0.091-0.070-0.256-0.143-0.494-0.219-0.238-0.078-0.426-0.154-0.565-0.229-0.378-0.204-0.567-0.479-0.567-0.825 0-0.18 0.050-0.34 0.151-0.48 0.102-0.142 0.248-0.252 0.437-0.332 0.191-0.079 0.404-0.119 0.64-0.119 0.238 0 0.45 0.043 0.636 0.13 0.186 0.085 0.33 0.207 0.432 0.364 0.104 0.157 0.155 0.335 0.155 0.535h-0.686c0-0.152-0.048-0.271-0.144-0.354-0.096-0.085-0.231-0.128-0.405-0.128-0.168 0-0.298 0.036-0.391 0.107-0.093 0.070-0.139 0.163-0.139 0.279 0 0.108 0.054 0.199 0.162 0.272 0.11 0.073 0.271 0.142 0.483 0.206 0.39 0.117 0.675 0.263 0.853 0.437s0.267 0.39 0.267 0.649c0 0.288-0.109 0.514-0.327 0.679-0.218 0.163-0.511 0.245-0.88 0.245-0.256 0-0.489-0.046-0.7-0.139-0.21-0.095-0.371-0.223-0.483-0.386-0.11-0.163-0.165-0.352-0.165-0.567h0.688c0 0.367 0.22 0.551 0.659 0.551 0.163 0 0.29-0.033 0.382-0.098 0.091-0.067 0.137-0.16 0.137-0.279z"></path>
</svg>
