<!-- Generated by IcoMoon.io -->
<svg version="1.1" xmlns="http://www.w3.org/2000/svg" width="31" height="32" viewBox="0 0 31 32">
<title>logo-3</title>
<path fill="#afb1b8" d="M4.835 30.852c0.011 0 0.023 0.003 0.033 0.007s0.020 0.011 0.028 0.018l0.157 0.159c-0.122 0.129-0.272 0.232-0.441 0.302-0.198 0.077-0.411 0.114-0.625 0.109-0.201 0.004-0.402-0.031-0.588-0.101-0.168-0.065-0.319-0.162-0.443-0.286-0.126-0.128-0.224-0.278-0.286-0.441-0.069-0.182-0.102-0.374-0.1-0.566-0.003-0.194 0.034-0.387 0.108-0.568 0.068-0.164 0.172-0.314 0.304-0.441 0.134-0.125 0.294-0.222 0.47-0.288 0.193-0.069 0.399-0.103 0.606-0.101 0.192-0.004 0.384 0.027 0.562 0.092 0.155 0.062 0.298 0.148 0.421 0.255l-0.131 0.17c-0.009 0.012-0.020 0.022-0.033 0.031-0.016 0.010-0.034 0.014-0.053 0.013-0.020-0.001-0.040-0.008-0.057-0.018l-0.071-0.045-0.098-0.058c-0.042-0.021-0.086-0.040-0.131-0.056-0.058-0.019-0.118-0.034-0.178-0.045-0.077-0.013-0.155-0.019-0.233-0.018-0.149-0.002-0.297 0.024-0.435 0.076-0.129 0.048-0.245 0.121-0.341 0.213-0.098 0.099-0.173 0.214-0.221 0.34-0.055 0.144-0.082 0.296-0.080 0.449-0.002 0.155 0.025 0.309 0.080 0.456 0.048 0.125 0.122 0.24 0.218 0.338 0.090 0.092 0.201 0.164 0.325 0.21 0.128 0.049 0.265 0.074 0.404 0.072 0.080 0.001 0.16-0.004 0.239-0.014 0.129-0.015 0.253-0.056 0.363-0.121 0.055-0.033 0.107-0.071 0.155-0.112 0.020-0.018 0.047-0.028 0.074-0.029z"></path>
<path fill="#afb1b8" d="M9.362 30.052c0.002 0.192-0.033 0.383-0.106 0.563-0.064 0.163-0.165 0.312-0.295 0.437s-0.289 0.222-0.463 0.287c-0.384 0.135-0.808 0.135-1.191 0-0.173-0.065-0.33-0.163-0.461-0.288-0.131-0.127-0.232-0.277-0.298-0.441-0.141-0.364-0.141-0.763 0-1.127 0.067-0.164 0.168-0.315 0.298-0.443 0.131-0.12 0.288-0.215 0.461-0.277 0.383-0.138 0.808-0.138 1.191 0 0.174 0.065 0.332 0.163 0.462 0.288 0.129 0.126 0.23 0.274 0.296 0.436 0.073 0.181 0.108 0.373 0.106 0.566zM8.95 30.052c0.003-0.154-0.022-0.306-0.075-0.452-0.044-0.125-0.115-0.24-0.21-0.338-0.092-0.093-0.205-0.166-0.331-0.213-0.279-0.099-0.587-0.099-0.866 0-0.126 0.048-0.239 0.121-0.331 0.213-0.096 0.098-0.168 0.213-0.212 0.338-0.1 0.294-0.1 0.61 0 0.905 0.044 0.125 0.116 0.24 0.212 0.338 0.092 0.092 0.205 0.165 0.331 0.212 0.279 0.096 0.587 0.096 0.866 0 0.126-0.047 0.239-0.119 0.331-0.212 0.094-0.099 0.165-0.214 0.21-0.338 0.053-0.146 0.078-0.299 0.075-0.452z"></path>
<path fill="#afb1b8" d="M12.45 30.526l0.041 0.101c0.016-0.036 0.029-0.069 0.045-0.101 0.015-0.034 0.032-0.067 0.051-0.099l1.001-1.68c0.020-0.029 0.037-0.047 0.057-0.052 0.027-0.008 0.054-0.011 0.082-0.009h0.296v2.733h-0.351v-2.010c0-0.025 0-0.054 0-0.085-0.002-0.031-0.002-0.063 0-0.094l-1.007 1.704c-0.013 0.026-0.033 0.047-0.059 0.062s-0.056 0.023-0.086 0.023h-0.057c-0.031 0-0.060-0.007-0.086-0.023s-0.046-0.037-0.059-0.062l-1.037-1.715c0 0.033 0 0.065 0 0.098s0 0.061 0 0.087v2.010h-0.339v-2.728h0.296c0.028-0.002 0.056 0.002 0.082 0.009 0.024 0.011 0.044 0.030 0.055 0.052l1.023 1.682c0.020 0.031 0.037 0.064 0.051 0.098z"></path>
<path fill="#afb1b8" d="M16.219 30.39v1.024h-0.392v-2.729h0.874c0.165-0.003 0.33 0.017 0.488 0.060 0.127 0.033 0.244 0.091 0.345 0.17 0.087 0.074 0.154 0.166 0.196 0.268 0.046 0.111 0.069 0.23 0.067 0.349 0.002 0.12-0.023 0.238-0.073 0.349-0.047 0.105-0.119 0.198-0.212 0.273-0.101 0.082-0.219 0.144-0.347 0.181-0.153 0.045-0.312 0.066-0.472 0.063l-0.474-0.007zM16.219 30.097h0.474c0.103 0.001 0.206-0.013 0.304-0.042 0.081-0.025 0.156-0.065 0.22-0.118 0.059-0.050 0.104-0.112 0.133-0.181 0.032-0.073 0.048-0.151 0.047-0.23 0.005-0.076-0.009-0.152-0.039-0.222s-0.077-0.134-0.137-0.186c-0.15-0.108-0.338-0.16-0.527-0.146h-0.474v1.125z"></path>
<path fill="#afb1b8" d="M21.486 31.418h-0.31c-0.031 0.001-0.062-0.008-0.086-0.025-0.022-0.017-0.040-0.039-0.051-0.063l-0.267-0.66h-1.338l-0.276 0.66c-0.010 0.024-0.027 0.045-0.049 0.062-0.025 0.018-0.056 0.028-0.088 0.027h-0.31l1.176-2.733h0.408l1.192 2.733zM19.546 30.403h1.105l-0.466-1.113c-0.036-0.084-0.065-0.169-0.088-0.257l-0.045 0.143c-0.014 0.043-0.029 0.083-0.043 0.116l-0.462 1.111z"></path>
<path fill="#afb1b8" d="M23.18 28.697c0.023 0.012 0.044 0.029 0.059 0.049l1.715 2.060c0-0.033 0-0.065 0-0.096s0-0.061 0-0.090v-1.936h0.351v2.733h-0.196c-0.028 0.001-0.055-0.005-0.080-0.016-0.024-0.013-0.046-0.030-0.063-0.051l-1.713-2.059c0.002 0.031 0.002 0.063 0 0.094 0 0.031 0 0.058 0 0.083v1.948h-0.351v-2.733h0.208c0.024-0.001 0.048 0.004 0.070 0.013z"></path>
<path fill="#afb1b8" d="M28.193 30.33v1.085h-0.392v-1.085l-1.084-1.646h0.351c0.030-0.002 0.060 0.007 0.084 0.024 0.021 0.018 0.039 0.038 0.053 0.061l0.678 1.062c0.027 0.045 0.051 0.087 0.071 0.127s0.035 0.078 0.049 0.116l0.051-0.118c0.019-0.043 0.041-0.085 0.067-0.125l0.668-1.069c0.014-0.021 0.031-0.041 0.051-0.058 0.023-0.019 0.053-0.029 0.084-0.027h0.355l-1.086 1.654z"></path>
<path fill="#afb1b8" d="M12.256 24.097c0.171 0.020 0.343 0.036 0.517 0.051 2.644-1.092 4.881-2.879 6.431-5.138s2.344-4.889 2.284-7.563l-2.914-2.69c0.593 2.846 0.315 5.788-0.8 8.498s-3.026 5.078-5.518 6.842z"></path>
<path fill="#afb1b8" d="M11.216 23.972l0.078 0.014c2.662-1.758 4.692-4.212 5.827-7.046s1.322-5.917 0.538-8.85l-4.151-3.831c1.679 3.149 2.355 6.674 1.949 10.164s-1.877 6.802-4.242 9.55z"></path>
<path fill="#afb1b8" d="M25.292 14.605c-0.705 2.937-2.418 5.587-4.884 7.554-0.72 0.578-1.497 1.093-2.32 1.538 2.008-0.545 3.853-1.508 5.394-2.815s2.736-2.924 3.493-4.724l-1.683-1.552z"></path>
<path fill="#afb1b8" d="M24.632 14.173l-2.397-2.212c-0.046 2.522-0.823 4.987-2.25 7.139s-3.452 3.911-5.865 5.095h0.012c0.538-0 1.075-0.030 1.609-0.089 2.255-0.85 4.247-2.201 5.799-3.934s2.614-3.794 3.093-5.998z"></path>
<path fill="#afb1b8" d="M11.562 2.643l-2.859-2.643c-2.556 0.912-4.754 2.515-6.307 4.599s-2.388 4.552-2.396 7.082v0c0.010 2.795 1.029 5.507 2.896 7.707s4.476 3.762 7.414 4.44c2.622-2.949 4.158-6.593 4.383-10.403s-0.871-7.586-3.131-10.781z"></path>
<path fill="#afb1b8" d="M31.238 13.766c-0.010-3.316-1.442-6.494-3.982-8.838s-5.983-3.666-9.575-3.676c-1.66-0.002-3.306 0.281-4.854 0.834l17.506 16.159c0.599-1.428 0.906-2.947 0.905-4.479z"></path>
</svg>
