<svg aria-hidden="true" style="position:absolute;width:0;height:0" xmlns="http://www.w3.org/2000/svg" overflow="hidden"><defs><symbol id="icon-send" viewBox="0 0 32 32"><path fill="" d="M32 0L0 18l10.227 3.787L26 7 14.003 23.187l.009.003-.012-.003V32l5.735-6.691L27.002 28l4.999-28z"/></symbol><symbol id="icon-logo-5" viewBox="0 0 40 32"><path fill="" d="M3.055 26.742c.156.194.24.438.236.688a1.092 1.092 0 0 1-.365.869 1.575 1.575 0 0 1-1.061.317H0v-4.361h1.827c.361-.024.718.078 1.012.29a.998.998 0 0 1 .354.816c.011.241-.065.477-.212.667a.997.997 0 0 1-.556.341c.247.045.471.177.63.373zm-2.187-.658h.781a.736.736 0 0 0 .496-.145.507.507 0 0 0 .167-.426.526.526 0 0 0-.165-.426.75.75 0 0 0-.511-.147H.868v1.144zm1.354 1.672a.54.54 0 0 0 .185-.443.56.56 0 0 0-.188-.448.803.803 0 0 0-.53-.158H.87v1.199h.83a.822.822 0 0 0 .524-.151zM6.79 28.617l-1.016-1.704h-.382v1.704h-.874v-4.361h1.655c.417-.029.83.103 1.152.371a1.394 1.394 0 0 1 .123 1.804 1.342 1.342 0 0 1-.789.443l1.082 1.743H6.79zm-1.399-2.299h.715c.497 0 .745-.22.745-.66a.641.641 0 0 0-.183-.49.771.771 0 0 0-.562-.177h-.724l.008 1.327zM11.568 27.739H9.826l-.308.878h-.917l1.6-4.312h.991l1.593 4.312h-.917l-.301-.878zm-.233-.66l-.637-1.841-.637 1.841h1.273zM17.55 28.617h-.868l-1.946-2.965v2.965h-.866v-4.361h.866l1.946 2.983v-2.983h.868v4.361zM22.502 27.573a1.877 1.877 0 0 1-.785.769 2.546 2.546 0 0 1-1.22.275h-1.545v-4.361h1.545c.422-.011.841.081 1.22.268.332.168.606.433.785.761a2.541 2.541 0 0 1 0 2.288zm-.993-.104a1.601 1.601 0 0 0 0-2.082 1.506 1.506 0 0 0-1.086-.371h-.603v2.823h.603a1.5 1.5 0 0 0 1.086-.371zM12.111 0s11.201 4.246 10.963 10.39v10.392S11.881 16.534 12.115 10.39L12.111 0zM33.054 18.349a15.301 15.301 0 0 1 7.117-2.633v-3.253a14.62 14.62 0 0 0-7.117 5.886z"/><path fill="" d="M31.783 19.329a15.237 15.237 0 0 1 8.388-7.548V2.407S24.219 8.455 24.557 17.204v14.795s.711-.271 1.829-.778c0-.473 0-.95.051-1.429a15.387 15.387 0 0 1 5.347-10.464z"/><path fill="" d="M30.266 24.825a15.35 15.35 0 0 1 .558-3.029 14.323 14.323 0 0 0-3.377 8.937 46.367 46.367 0 0 0 3.068-1.623 15.355 15.355 0 0 1-.248-4.284zM30.9 24.878a14.705 14.705 0 0 0 .197 3.879c4.358-2.618 9.255-6.664 9.067-11.553v-.426a14.276 14.276 0 0 0-8.292 3.89 14.648 14.648 0 0 0-.972 4.21z"/></symbol><symbol id="icon-logo-4" viewBox="0 0 60 32"><path fill="" d="M9.229 9.548h-.002c-1.684 0-3.048 1.33-3.048 2.971v.002c0 1.641 1.365 2.971 3.048 2.971h.002c1.684 0 3.048-1.33 3.048-2.971v-.002c0-1.641-1.365-2.971-3.048-2.971zM31.73 8.599c-.005-2.279-.936-4.463-2.589-6.074S25.247.006 22.908.001c-2.339.004-4.581.911-6.235 2.523S14.087 6.32 14.083 8.6v12.566S31.728 19.251 31.73 8.602V8.6zM0 25.289c.004 1.586.652 3.105 1.803 4.226s2.709 1.753 4.336 1.758c1.627-.005 3.185-.636 4.336-1.757s1.799-2.64 1.803-4.225v-8.744S0 17.881 0 25.289zm6.139 1.567c-.318 0-.629-.092-.893-.264s-.47-.417-.592-.703-.154-.601-.091-.905c.062-.304.215-.583.44-.802s.511-.368.823-.429c.312-.06.635-.029.929.089s.545.319.721.577a1.537 1.537 0 0 1 .15 1.471 1.585 1.585 0 0 1-.87.851c-.195.079-.405.12-.617.12v-.006zM18.671 25.884h-1.256v1.297h-.654v-3.174h2.067v.53h-1.413v.82h1.256v.528zm3.144-.218c0 .312-.055.587-.166.822s-.269.417-.475.545c-.205.128-.44.192-.706.192-.263 0-.498-.063-.704-.19s-.366-.307-.48-.541a1.867 1.867 0 0 1-.172-.811v-.157c0-.312.056-.587.168-.824a1.26 1.26 0 0 1 .477-.547c.206-.128.442-.192.706-.192s.499.064.704.192c.206.126.366.309.477.547.113.237.17.511.17.822v.142zm-.663-.144c0-.333-.06-.586-.179-.759s-.289-.259-.51-.259a.583.583 0 0 0-.508.257c-.119.17-.18.42-.181.75v.155c0 .324.06.576.179.754s.291.268.515.268a.579.579 0 0 0 .506-.257c.118-.173.177-.424.179-.754v-.155zm2.784.826a.331.331 0 0 0-.131-.283c-.087-.067-.244-.137-.471-.209a3.375 3.375 0 0 1-.538-.218c-.36-.195-.541-.457-.541-.787 0-.172.048-.324.144-.458a.945.945 0 0 1 .416-.316 1.57 1.57 0 0 1 .611-.113c.227 0 .429.041.606.124a.946.946 0 0 1 .412.347c.099.15.148.32.148.51h-.654a.427.427 0 0 0-.137-.338c-.092-.081-.22-.122-.386-.122a.602.602 0 0 0-.373.102.317.317 0 0 0-.133.266c0 .103.052.19.155.259.105.07.258.135.46.196.372.112.643.251.813.416s.255.372.255.619a.767.767 0 0 1-.312.648c-.208.156-.488.233-.839.233-.244 0-.467-.044-.667-.133a1.07 1.07 0 0 1-.46-.368.945.945 0 0 1-.157-.541h.656c0 .35.209.525.628.525a.61.61 0 0 0 .364-.094.313.313 0 0 0 .131-.266zm3.491-1.812h-.972v2.645h-.654v-2.645h-.959v-.53h2.586v.53zm2.285 1.269h-1.256v.85h1.474v.525h-2.128v-3.174h2.124v.53h-1.47v.757h1.256v.512zm1.777.214h-.521v1.162h-.654v-3.174h1.18c.375 0 .664.084.868.251s.305.403.305.709a.973.973 0 0 1-.142.543.95.95 0 0 1-.425.344l.687 1.297v.03h-.702l-.595-1.162zm-.522-.53h.528c.164 0 .291-.041.382-.124.09-.084.135-.2.135-.347a.476.476 0 0 0-.129-.353c-.084-.086-.214-.129-.39-.129h-.525v.953zm3.964.574v1.118h-.654v-3.174h1.238c.238 0 .448.044.628.131a.964.964 0 0 1 .419.373c.097.16.146.342.146.547 0 .311-.107.557-.32.737-.212.179-.507.268-.883.268h-.573zm0-.53h.584c.173 0 .305-.041.395-.122.092-.081.137-.198.137-.349 0-.156-.046-.281-.137-.377s-.218-.145-.379-.148h-.6v.996zm4.138.272h-1.256v.85h1.474v.525h-2.128v-3.174h2.124v.53h-1.469v.757h1.256v.512zm3.035-1.269h-.972v2.645h-.654v-2.645h-.959v-.53h2.586v.53zm2.285 1.269h-1.256v.85h1.474v.525h-2.128v-3.174h2.124v.53h-1.469v.757h1.256v.512zm1.777.214h-.521v1.162h-.654v-3.174h1.18c.375 0 .664.084.868.251s.305.403.305.709a.973.973 0 0 1-.142.543.95.95 0 0 1-.425.344l.687 1.297v.03h-.702l-.595-1.162zm-.521-.53h.528c.164 0 .291-.041.382-.124.09-.084.135-.2.135-.347a.476.476 0 0 0-.129-.353c-.084-.086-.214-.129-.39-.129h-.525v.953zm3.844.859a.331.331 0 0 0-.131-.283c-.087-.067-.244-.137-.471-.209a3.432 3.432 0 0 1-.539-.218c-.36-.195-.541-.457-.541-.787 0-.172.048-.324.144-.458a.945.945 0 0 1 .416-.316c.182-.076.385-.113.61-.113.227 0 .429.041.606.124a.946.946 0 0 1 .412.347c.099.15.148.32.148.51h-.654a.427.427 0 0 0-.137-.338c-.092-.081-.22-.122-.386-.122a.602.602 0 0 0-.373.102.317.317 0 0 0-.133.266c0 .103.052.19.155.259.105.07.258.135.46.196.372.112.643.251.813.416s.255.372.255.619a.767.767 0 0 1-.312.648c-.208.156-.488.233-.839.233-.244 0-.467-.044-.667-.133a1.07 1.07 0 0 1-.46-.368.945.945 0 0 1-.157-.541h.656c0 .35.209.525.628.525a.61.61 0 0 0 .364-.094.313.313 0 0 0 .131-.266z"/></symbol><symbol id="icon-instagram" viewBox="0 0 32 32"><path fill="" d="M31.968 9.408c-.074-1.701-.349-2.869-.742-3.882a7.839 7.839 0 0 0-1.85-2.837l-.001-.001A7.906 7.906 0 0 0 26.597.861l-.054-.018C25.524.449 24.362.176 22.661.101 20.949.019 20.405 0 16.059 0c-4.344 0-4.888.019-6.595.094-1.699.074-2.869.349-3.88.742a7.847 7.847 0 0 0-2.839 1.85l-.001.001A7.9 7.9 0 0 0 .919 5.465l-.018.054C.506 6.538.232 7.7.157 9.401c-.082 1.712-.101 2.256-.101 6.602 0 4.344.019 4.888.094 6.595.075 1.701.35 2.869.744 3.882a7.915 7.915 0 0 0 1.849 2.837l.001.001c.8.813 1.77 1.443 2.832 1.843 1.019.395 2.182.67 3.882.744 1.707.075 2.251.094 6.595.094 4.346 0 4.89-.019 6.595-.094 1.701-.074 2.869-.349 3.882-.742a8.237 8.237 0 0 0 4.664-4.628l.019-.055c.394-1.019.669-2.182.744-3.882.075-1.707.093-2.251.093-6.595s-.006-4.888-.08-6.595zm-2.88 13.066c-.07 1.563-.333 2.406-.55 2.97a5.341 5.341 0 0 1-3.004 3.024l-.036.012c-.56.219-1.411.482-2.968.55-1.688.075-2.194.094-6.464.094-4.269 0-4.782-.019-6.464-.094-1.563-.069-2.406-.331-2.97-.55a4.953 4.953 0 0 1-1.836-1.192l-.001-.001a4.978 4.978 0 0 1-1.184-1.803L3.6 25.45c-.218-.563-.48-1.413-.549-2.97-.075-1.688-.094-2.195-.094-6.464 0-4.27.019-4.784.094-6.464.069-1.563.331-2.406.549-2.97a4.897 4.897 0 0 1 1.198-1.837l.002-.002a4.972 4.972 0 0 1 1.806-1.182l.034-.011c.56-.219 1.411-.48 2.968-.55 1.688-.074 2.195-.093 6.464-.093 4.275 0 4.782.019 6.464.093 1.563.069 2.406.331 2.97.55a4.91 4.91 0 0 1 1.837 1.194c.531.52.938 1.144 1.195 1.84.218.56.48 1.411.549 2.968.075 1.688.094 2.194.094 6.464 0 4.269-.019 4.768-.094 6.458z"/><path fill="" d="M16.059 7.782a8.223 8.223 0 0 0-8.219 8.221v.002a8.222 8.222 0 1 0 16.444 0 8.222 8.222 0 0 0-8.222-8.222h-.002zm0 13.552a5.333 5.333 0 0 1 .001-10.666h.001a5.334 5.334 0 1 1 0 10.668zM26.525 7.458a1.92 1.92 0 0 1-3.84 0 1.92 1.92 0 0 1 3.84 0z"/></symbol><symbol id="icon-linkedin" viewBox="0 0 32 32"><path fill="" d="M31.992 32H32V20.262c0-5.741-1.235-10.163-7.947-10.163-3.227 0-5.392 1.77-6.277 3.45h-.093v-2.914h-6.365v21.363h6.627V21.42c0-2.786.528-5.48 3.978-5.48 3.398 0 3.45 3.179 3.45 5.658V32h6.619zM.528 10.635h6.635V32H.528V10.635zM3.843 0A3.843 3.843 0 0 0 0 3.843c0 2.12 1.722 3.878 3.843 3.878 2.12 0 3.842-1.757 3.842-3.878S5.965.002 3.844 0z"/></symbol><symbol id="icon-logo1" viewBox="0 0 30 32"><path fill="" d="M4 0l4.872 4.468h13.589v12.465l4.872 4.468V0H4z"/><path fill="" d="M0 4.28v20.79h22.667v-8.264L9.016 4.285.001 4.28zm18.349 17.749H3.587V8.047H4.63v13.035h13.719v.947zM6.527 28.991l.545-1.123h.456l-.795 1.497v.872H6.32v-.872l-.796-1.497h.457l.545 1.123zm2.34.695H7.95l-.192.551H7.33l.895-2.369h.37l.897 2.369h-.43l-.193-.551zm-.802-.332h.687l-.343-.983-.343.983zm2.426.244c0-.109.03-.21.089-.301s.177-.201.353-.327a1.492 1.492 0 0 1-.189-.288l-.004-.009a.564.564 0 0 1-.054-.235c0-.185.056-.332.169-.439a.628.628 0 0 1 .455-.163c.173 0 .313.051.423.153.111.1.167.226.167.375v.003a.52.52 0 0 1-.077.273l.001-.002a.903.903 0 0 1-.243.246l-.003.002-.161.117.458.541a.947.947 0 0 0 .099-.435h.343c0 .292-.068.531-.205.718l.348.411h-.459l-.133-.157a.971.971 0 0 1-.58.19h-.027.001c-.234 0-.422-.062-.563-.185a.62.62 0 0 1-.21-.466v-.022.001zm.784.357a.609.609 0 0 0 .374-.133l-.517-.611-.051.036c-.13.099-.195.211-.195.338 0 .11.035.199.106.267a.389.389 0 0 0 .265.104h.02-.001zm-.218-1.527c0 .091.056.205.168.343l.18-.124.051-.04a.292.292 0 0 0 .101-.221v-.009-.003a.206.206 0 0 0-.07-.155.247.247 0 0 0-.169-.067h-.019a.233.233 0 0 0-.174.078.285.285 0 0 0-.069.187v.011-.001zm4.305 1.038c-.024.253-.117.451-.28.593s-.379.211-.649.211h-.019a.928.928 0 0 1-.485-.136l.004.002a.89.89 0 0 1-.33-.377l-.002-.006a1.354 1.354 0 0 1-.122-.567v-.23c0-.223.04-.42.119-.591a.904.904 0 0 1 .34-.393.95.95 0 0 1 .515-.139c.261 0 .472.071.631.213s.253.343.279.602h-.41c-.02-.17-.069-.293-.15-.368-.079-.076-.196-.113-.35-.113a.48.48 0 0 0-.413.197c-.095.13-.144.321-.147.575v.21c0 .256.046.451.137.586s.227.201.403.201c.161 0 .283-.036.365-.109s.133-.193.155-.363h.41zm2.261-.351c0 .232-.04.436-.12.612-.081.175-.196.309-.345.403s-.32.14-.515.14a.96.96 0 0 1-.514-.14.946.946 0 0 1-.346-.396l-.002-.006a1.394 1.394 0 0 1-.123-.578v-.023.001-.133c0-.231.04-.435.122-.613s.198-.312.347-.405c.15-.094.321-.141.514-.141s.365.047.513.14a.91.91 0 0 1 .347.4c.081.173.123.376.123.607v.132zm-.412-.124c0-.263-.05-.463-.149-.603a.485.485 0 0 0-.4-.21l-.023.001h.001-.017a.488.488 0 0 0-.4.209l-.001.002c-.1.139-.151.335-.153.591v.137c0 .26.051.461.152.604s.243.213.423.213c.183 0 .323-.07.42-.209.099-.139.148-.342.148-.609v-.124z"/></symbol><symbol id="icon-logo2" viewBox="0 0 25 32"><path fill="" d="M10.447 1.806h.084c.156 0 .324.015.49.03a13.96 13.96 0 0 1 2.18.329V.403a12.432 12.432 0 0 0-2.207-.357l-.042-.002c-.254-.02-.571-.035-.889-.043H9.779c-1.523.006-3.04.201-4.515.582a18.28 18.28 0 0 0-4.79 1.948v17.475a18.922 18.922 0 0 1 4.431-1.75l.135-.029a19.11 19.11 0 0 1 3.78-.586l.052-.002h.052c.216-.011.433-.017.655-.018V15.83c-1.78.024-3.493.264-5.129.695l.147-.033c-.603.157-1.185.326-1.731.513l-.623.212V3.591l.266-.128c1.89-.918 4.096-1.513 6.424-1.649l.047-.002.028-.001.029.001h-.001c.248-.012.497-.018.742-.018h.28c.129.003.258.006.388.014z"/><path fill="" d="M14.837 3.651h-.016c-.915 0-1.811-.077-2.684-.225l.094.013c-.277-.047-.55-.103-.814-.164V20.55c1.12.277 2.271.412 3.425.404a18.446 18.446 0 0 0 4.644-.61l-.128.029a18.299 18.299 0 0 0 4.877-1.995l-.085.047V1.262a19.021 19.021 0 0 1-4.429 1.751l-.136.03a19.345 19.345 0 0 1-4.746.609zm6.908.299l.623-.209v13.63l-.266.129c-.903.442-1.962.834-3.065 1.118l-.119.026c-1.331.345-2.7.521-4.074.527-.411 0-.818-.017-1.214-.052l-.426-.038V5.064l.497.033c.361.023.735.034 1.141.034a21.098 21.098 0 0 0 5.173-.663 28.128 28.128 0 0 0 1.731-.518zM1.684 25.977a.916.916 0 0 0-.661-.281l-.033.001h.002-.014c-.139 0-.272.028-.393.078l.007-.003a.904.904 0 0 0-.51.512l-.002.006a1.002 1.002 0 0 0-.072.386v2.335c-.006.164.026.328.092.479a.83.83 0 0 0 .554.479c.114.031.231.048.349.048a.984.984 0 0 0 .968-.982v-.262h-.61v.221c0 .07-.013.138-.038.199l.001-.004a.38.38 0 0 1-.089.132.426.426 0 0 1-.255.089.308.308 0 0 1-.285-.125l-.001-.001a.548.548 0 0 1-.082-.289l.001-.025v.001-2.177a.74.74 0 0 1 .075-.349.31.31 0 0 1 .262-.143l.038.002H.987h.012c.107 0 .201.052.26.131l.001.001a.494.494 0 0 1 .102.301v.012-.001.202h.604v-.238-.011c0-.143-.027-.28-.077-.405l.003.007a.955.955 0 0 0-.205-.329zm3.626-.026a1.083 1.083 0 0 0-.694-.257 1.075 1.075 0 0 0-.364.066.965.965 0 0 0-.556.512l-.002.006a1.083 1.083 0 0 0-.089.452v2.239c-.004.157.026.314.089.458.055.12.135.227.236.313a.964.964 0 0 0 .322.197 1.049 1.049 0 0 0 1.059-.198l-.001.001a.948.948 0 0 0 .23-.313c.063-.145.093-.302.089-.458v-2.24-.02c0-.156-.033-.305-.092-.439l.003.007a1.016 1.016 0 0 0-.23-.327zm-.285 3.018l.002.035a.398.398 0 0 1-.123.289.446.446 0 0 1-.575 0l.001.001a.398.398 0 0 1-.121-.326v.002-2.24l-.001-.034a.4.4 0 0 1 .123-.289.446.446 0 0 1 .575 0l-.001-.001a.398.398 0 0 1 .121.326v-.002 2.239zm5.047 1v-4.24h-.586l-.771 2.244h-.01l-.778-2.244h-.58v4.24h.606V27.39h.011l.593 1.823h.302l.598-1.823h.01v2.578h.606zm3.441-3.942a.837.837 0 0 0-.343-.232 1.33 1.33 0 0 0-.414-.065h-.026.001-.9v4.239h.604v-1.655h.311c.189.009.376-.031.545-.116a.894.894 0 0 0 .329-.32l.002-.004a1.02 1.02 0 0 0 .139-.369c.023-.159.034-.32.033-.482a2.426 2.426 0 0 0-.059-.606.906.906 0 0 0-.223-.39zm-.312 1.292a.538.538 0 0 1-.057.224l.001-.003a.342.342 0 0 1-.154.147l-.002.001a.617.617 0 0 1-.254.054l-.033-.001h.002-.276V26.3h.311l.029-.001c.088 0 .172.02.247.055l-.004-.002c.062.036.111.09.141.155l.001.002a.615.615 0 0 1 .053.236v.281c0 .098.006.201 0 .291H13.2zm3.173-1.59h-.495l-.934 4.24h.604l.177-.911h.823l.178.911h.604l-.958-4.24zm-.557 2.752l.297-1.537h.011l.295 1.537h-.604zm4.46-.198h-.011l-.913-2.554h-.58v4.24h.604v-2.55h.012l.923 2.549h.569v-4.239h-.604v2.554zm3.691-2.554l-.486 1.686h-.012l-.486-1.686h-.639l.83 2.448v1.791h.604v-1.791l.83-2.447h-.64zM0 31.166h.291v.817h.198v-.817h.289v-.167H0v.167zm2.447-.167l-.382.984h.21l.081-.224h.392l.084.224h.215l-.391-.985h-.21zm-.03.594l.134-.365.134.365h-.268zm2.449.027h.228v.127a.378.378 0 0 1-.234.083h-.014a.25.25 0 0 1-.195-.094.406.406 0 0 1-.073-.234l.001-.023v.001c0-.219.095-.329.283-.329l.021-.001c.097 0 .178.067.201.157v.001l.194-.038c-.042-.192-.18-.289-.417-.289h-.013a.492.492 0 0 0-.331.127.48.48 0 0 0-.141.38v-.002.023c0 .132.048.254.127.347l-.001-.001c.087.09.209.146.343.146L4.877 32h-.001.016c.155 0 .296-.06.402-.157v-.388h-.426v.166zm2.471-.621h-.199v.984h.689v-.167h-.49v-.817zm2.089 0h-.199v.984h.199v-.985zm2.042.656l-.403-.657h-.193v.984h.185v-.643l.396.643h.198v-.985h-.182v.658zm1.847-.105h.49v-.167h-.49v-.216h.527V31h-.727v.984h.747v-.167h-.548v-.266zm4.477-.164h-.388v-.388h-.198v.984h.198v-.431h.388v.431h.198v-.985h-.197v.388zm1.857.164h.492v-.167h-.492v-.216h.529V31h-.726v.984h.746v-.167h-.548v-.266zm2.519 0c.171-.027.258-.118.258-.274a.23.23 0 0 0-.096-.219h-.001a.555.555 0 0 0-.25-.059l-.04.001h.002-.417v.984h.198v-.412h.055c.039 0 .076.008.109.023l-.002-.001a.201.201 0 0 1 .07.072l.215.313h.236l-.12-.192a.704.704 0 0 0-.215-.235l-.002-.002zm-.199-.137h-.146v-.247h.156a.515.515 0 0 1 .205.024l-.004-.001a.13.13 0 0 1-.009.2.537.537 0 0 1-.164.025l-.039-.001h.002zm2.099.137h.49v-.167h-.49v-.216h.529V31h-.728v.984h.747v-.167h-.548v-.266z"/></symbol><symbol id="icon-logo3" viewBox="0 0 31 32"><path fill="" d="M4.834 30.852c.024 0 .045.01.061.025l.157.159a1.28 1.28 0 0 1-.441.302 1.64 1.64 0 0 1-.625.109h-.031c-.2 0-.391-.037-.568-.105l.011.004a1.277 1.277 0 0 1-.443-.286 1.28 1.28 0 0 1-.283-.433l-.003-.009a1.53 1.53 0 0 1-.1-.548v-.019-.019c0-.197.04-.386.111-.557l-.004.01a1.308 1.308 0 0 1 .774-.729 1.72 1.72 0 0 1 .586-.101h.021-.001c.193-.005.384.027.562.091.155.062.298.149.421.256l-.131.17a.118.118 0 0 1-.033.03h-.001a.088.088 0 0 1-.046.013h-.007a.118.118 0 0 1-.058-.019l-.07-.046-.098-.057a1.038 1.038 0 0 0-.303-.1l-.006-.001a1.221 1.221 0 0 0-.217-.018h-.017.001-.014c-.151 0-.296.028-.429.079l.008-.003a.992.992 0 0 0-.342.214.978.978 0 0 0-.221.34 1.189 1.189 0 0 0-.081.434v.016-.001c-.002.155.025.309.08.455.048.125.122.24.218.339.09.091.201.163.325.21.128.049.265.073.404.072.08.001.16-.004.239-.015a.907.907 0 0 0 .362-.12c.059-.036.11-.073.157-.113l-.002.001a.12.12 0 0 1 .074-.029zm4.528-.8c.002.192-.034.382-.106.562a1.239 1.239 0 0 1-.294.437h-.001c-.129.122-.283.22-.454.283l-.009.003a1.798 1.798 0 0 1-1.204-.004l.013.004a1.29 1.29 0 0 1-.755-.721l-.003-.009a1.54 1.54 0 0 1 .004-1.138l-.004.01a1.31 1.31 0 0 1 .297-.442c.129-.118.282-.213.451-.274l.009-.003a1.78 1.78 0 0 1 1.192 0 1.287 1.287 0 0 1 .758.724c.072.181.109.373.107.566zm-.412 0v-.024a1.24 1.24 0 0 0-.078-.437l.003.009a.934.934 0 0 0-.21-.339.918.918 0 0 0-.325-.211l-.006-.002a1.3 1.3 0 0 0-.866 0 .92.92 0 0 0-.54.545l-.002.006c-.099.295-.099.61 0 .904a.916.916 0 0 0 .543.55c.28.097.587.097.866 0a.913.913 0 0 0 .331-.212.955.955 0 0 0 .21-.338c.053-.145.078-.299.075-.452zm3.5.474l.042.101c.015-.036.029-.069.045-.101s.032-.067.051-.099l1.001-1.681c.02-.029.037-.047.057-.053s.044-.01.069-.01h.014-.001.296v2.734h-.35v-2.095l-.001-.047.002-.049v.002l-1.007 1.704a.153.153 0 0 1-.059.062h-.001a.171.171 0 0 1-.085.023h-.057c-.03 0-.061-.008-.086-.023s-.046-.036-.059-.062v-.001l-1.036-1.714v2.194h-.339v-2.728h.31c.024 0 .048.003.07.01h-.002a.116.116 0 0 1 .055.052v.001l1.023 1.682c.018.028.036.06.05.094l.001.004zm3.769-.136v1.024h-.392v-2.73h.874c.165-.003.329.018.488.06a.937.937 0 0 1 .345.17.702.702 0 0 1 .194.263l.002.005c.046.111.069.23.067.349v.01a.82.82 0 0 1-.075.344l.002-.005a.757.757 0 0 1-.21.272l-.001.001a.973.973 0 0 1-.34.179l-.007.002a1.533 1.533 0 0 1-.472.064l-.474-.008zm0-.293h.475a.994.994 0 0 0 .303-.041.653.653 0 0 0 .221-.118l-.001.001a.493.493 0 0 0 .132-.178l.001-.003a.54.54 0 0 0 .047-.223v-.006l.001-.028a.48.48 0 0 0-.042-.197l.001.003a.524.524 0 0 0-.137-.186l-.001-.001a.799.799 0 0 0-.529-.147h.003-.475v1.125zm5.267 1.321h-.314a.143.143 0 0 1-.082-.026.179.179 0 0 1-.051-.062v-.001l-.267-.661h-1.338l-.277.661a.161.161 0 0 1-.048.061.138.138 0 0 1-.085.028h-.313l1.176-2.734h.408l1.192 2.733zm-1.939-1.015h1.105l-.466-1.112a1.775 1.775 0 0 1-.085-.244l-.003-.013-.045.143a1.464 1.464 0 0 1-.043.116l-.462 1.111zm3.632-1.706a.148.148 0 0 1 .059.049l1.714 2.06v-2.122h.35v2.733h-.203a.186.186 0 0 1-.074-.016h.001a.204.204 0 0 1-.062-.051l-1.714-2.059a.737.737 0 0 1 0 .094v2.031h-.35v-2.733h.208c.024 0 .048.004.07.013zm5.014 1.634v1.085h-.392v-1.084l-1.083-1.646h.358c.028 0 .054.009.076.023.022.018.04.039.053.062l.678 1.062c.046.07.087.15.117.235l.002.008.051-.117a.969.969 0 0 1 .069-.129l-.002.004.668-1.069a.316.316 0 0 1 .051-.058.127.127 0 0 1 .079-.028h.361l-1.086 1.653zm-15.937-6.234c.171.021.343.037.518.051 2.644-1.092 4.881-2.879 6.43-5.138s2.344-4.889 2.284-7.563l-2.914-2.69c.193.887.304 1.906.304 2.951 0 2.001-.406 3.908-1.139 5.642l.036-.095c-1.116 2.709-3.027 5.078-5.518 6.842z"/><path fill="" d="M11.215 23.972l.078.015c2.663-1.758 4.693-4.213 5.827-7.048.642-1.548 1.014-3.346 1.014-5.232a14.05 14.05 0 0 0-.498-3.716l.023.098-4.151-3.832c1.678 3.149 2.354 6.674 1.949 10.164s-1.877 6.802-4.242 9.55zm14.077-9.366c-.705 2.937-2.418 5.586-4.884 7.554a15.221 15.221 0 0 1-2.24 1.497l-.08.04c2.008-.545 3.854-1.508 5.394-2.814s2.735-2.924 3.493-4.725l-1.684-1.552z"/><path fill="" d="M24.632 14.173l-2.397-2.213c-.046 2.523-.823 4.987-2.25 7.139s-3.453 3.911-5.866 5.095h.012c.537 0 1.074-.03 1.608-.088 2.255-.85 4.248-2.202 5.799-3.934s2.613-3.794 3.093-5.998zM11.563 2.643L8.704 0C6.148.912 3.95 2.514 2.397 4.599.844 6.682.008 9.151.001 11.68c.01 2.796 1.029 5.507 2.896 7.707s4.476 3.762 7.414 4.44c2.622-2.949 4.158-6.593 4.383-10.403s-.872-7.586-3.131-10.781zm19.675 11.123c-.011-3.317-1.442-6.494-3.982-8.838s-5.982-3.667-9.575-3.676h-.024a14.38 14.38 0 0 0-4.93.865l.1-.032 17.506 16.16a11.36 11.36 0 0 0 .905-4.481z"/></symbol><symbol id="icon-logo5" viewBox="0 0 40 32"><path fill="" d="M3.056 26.742c.157.194.24.438.236.688l.001.053c0 .324-.141.615-.365.815l-.001.001a1.575 1.575 0 0 1-1.061.317H.001v-4.361h1.827a1.548 1.548 0 0 1 1.017.294l-.004-.003a.994.994 0 0 1 .353.818v-.003c.011.24-.065.477-.212.667a.99.99 0 0 1-.556.34c.247.046.471.177.63.373zm-2.188-.658h.78a.733.733 0 0 0 .497-.145.516.516 0 0 0 .169-.383l-.002-.045v.002l.001-.037a.535.535 0 0 0-.167-.389.747.747 0 0 0-.514-.146h.003-.767v1.144zm1.354 1.672a.54.54 0 0 0 .186-.408l-.001-.036v.002l.001-.032a.552.552 0 0 0-.189-.416l-.001-.001a.8.8 0 0 0-.48-.159l-.054.002h.002-.818v1.199h.829a.816.816 0 0 0 .524-.151zm4.567.861l-1.016-1.704h-.382v1.704h-.874v-4.361h1.654a1.624 1.624 0 0 1 1.156.373l-.003-.002a1.391 1.391 0 0 1 .12 1.808l.003-.004a1.337 1.337 0 0 1-.789.443l1.083 1.743H6.79zm-1.397-2.299h.715c.497 0 .745-.22.745-.66l.001-.037a.647.647 0 0 0-.184-.453.766.766 0 0 0-.565-.177h.003-.724l.009 1.328zm6.176 1.421H9.826l-.308.878h-.916l1.6-4.313h.991l1.593 4.312h-.916l-.301-.878zm-.233-.66l-.637-1.84-.637 1.84h1.273zm6.215 1.538h-.869l-1.945-2.965v2.965h-.866v-4.361h.866l1.945 2.982v-2.982h.868v4.361zm4.952-1.044c-.182.33-.45.593-.775.764l-.01.005a2.545 2.545 0 0 1-1.22.274h-1.546v-4.361h1.546l.067-.001c.42 0 .817.1 1.168.277l-.015-.007c.332.168.606.433.785.761.171.333.272.727.272 1.144s-.1.811-.278 1.158l.007-.014zm-.993-.104c.239-.278.384-.642.384-1.041s-.145-.763-.386-1.043l.002.002a1.5 1.5 0 0 0-1.091-.371h.004-.603v2.823h.603a1.496 1.496 0 0 0 1.088-.372l-.002.001zM12.112 0s11.201 4.246 10.962 10.39v10.392S11.881 16.534 12.115 10.39L12.112 0zm20.942 18.349a15.15 15.15 0 0 1 7.049-2.628l.068-.006v-3.253c-2.995 1.181-5.436 3.227-7.081 5.827l-.035.06z"/><path fill="" d="M31.782 19.329c1.749-3.487 4.693-6.158 8.283-7.513l.105-.035V2.408S24.218 8.456 24.555 17.205v14.796s.711-.27 1.829-.777c0-.473 0-.95.051-1.43a15.387 15.387 0 0 1 5.326-10.447l.021-.017z"/><path fill="" d="M30.266 24.825c.084-1.027.27-2.041.558-3.03a14.243 14.243 0 0 0-3.378 8.921v.016a43.71 43.71 0 0 0 3.286-1.741l-.218.118c-.191-.908-.3-1.952-.3-3.021 0-.445.019-.885.056-1.32l-.004.057zm.634.053a14.803 14.803 0 0 0 .212 3.971l-.015-.092c4.358-2.619 9.256-6.664 9.067-11.553v-.426a14.265 14.265 0 0 0-8.297 3.894l.005-.005a14.228 14.228 0 0 0-.968 4.158l-.003.052z"/><path fill="none" stroke="var(--color2, #afb1b8)" stroke-width=".681" d="M0 0h40.17v32H0z"/></symbol><symbol id="icon-Group-antenn" viewBox="0 0 32 32"><path fill="var(--color5, #212121)" d="M29.859 22.098l-8.443-8.505.937-4.616c.225.09.485.144.758.146h.033a2.16 2.16 0 1 0-2.029-1.42l-.005-.015-4.96.606L8.059.161a.53.53 0 0 0-.376-.16.536.536 0 0 0-.373.155L5.798 1.66a.535.535 0 0 0 0 .754l.814.825c-1.143 2.062-1.816 4.522-1.816 7.139 0 4.106 1.656 7.824 4.336 10.525l-.001-.001a.49.49 0 0 0 .146.097 2.986 2.986 0 0 0-.052.546v6.188h-6.4a2.669 2.669 0 0 0-2.667 2.666v1.067c0 .295.239.534.534.534h24.534a.534.534 0 0 0 .533-.534v-1.067a2.67 2.67 0 0 0-2.666-2.666h-6.4v-2.742a14.784 14.784 0 0 0 10.166-1.502l-.077.039.818.823a.534.534 0 0 0 .376.16.536.536 0 0 0 .373-.155l1.512-1.504a.535.535 0 0 0 0-.754zM22.366 6.233a1.067 1.067 0 1 1 .752 1.822h-.004a1.066 1.066 0 0 1-.747-1.822h-.002zM21.11 9.737l-.598 2.946-1.175-1.183 1.774-1.763zm-.606-.902l-1.92 1.909-1.486-1.493 3.406-.416zM23.09 28.8a1.6 1.6 0 0 1 1.6 1.6v.534H1.224V30.4a1.6 1.6 0 0 1 1.6-1.6h20.267zm-7.467-2.134v1.067h-5.334v-1.067h5.334zM10.29 25.6v-4.053c0-1.294 1.196-2.346 2.666-2.346s2.667 1.053 2.667 2.346V25.6H10.29zm6.4-1.696v-2.357c0-1.882-1.675-3.413-3.733-3.413h-.058c-1.353 0-2.54.707-3.213 1.771l-.009.016a13.817 13.817 0 0 1-3.812-9.55c0-2.314.567-4.496 1.569-6.414l-.036.077L26 22.743c-1.823.947-3.979 1.502-6.266 1.502-1.079 0-2.128-.124-3.136-.357l.093.018zm11.289-.684L6.922 2.039l.754-.752 7.935 7.98c.004 0 .006.007.01.01l13.115 13.191-.757.752z"/><path fill="var(--color3, #2196f3)" d="M12.961 20.267h-.007a1.6 1.6 0 0 0-.003 3.2h.007a1.6 1.6 0 0 0 .002-3.2zm.373 1.978a.534.534 0 1 1-.378-.912.533.533 0 0 1 .374.911h.005z"/></symbol><symbol id="icon-astronaut" viewBox="0 0 32 32"><path fill="var(--color3, #2196f3)" d="M31.974 4.524a.535.535 0 0 0-.427-.362h-.003l-1.91-.278-.855-1.731c-.179-.365-.777-.365-.956 0l-.855 1.731-1.911.278a.534.534 0 0 0-.296.91l1.383 1.348-.326 1.903a.532.532 0 1 0 .774.562l1.708-.899 1.709.899a.534.534 0 0 0 .773-.565v.003l-.326-1.903 1.383-1.348a.532.532 0 0 0 .133-.551l.001.004zm-2.463 1.327a.534.534 0 0 0-.153.472l.191 1.114-1.001-.526a.524.524 0 0 0-.499.001l.003-.001-1.001.526.192-1.114a.533.533 0 0 0-.153-.472l-.811-.789 1.119-.163a.532.532 0 0 0 .402-.292l.5-1.013.501 1.013a.532.532 0 0 0 .402.292l1.119.162-.809.79zm-3.377 14.671h-1.067v1.067h1.067v-1.067zm0 2.134h-1.067v1.066h1.067v-1.066zm1.066-1.067h-1.067v1.067H27.2v-1.067zm-2.133 0H24v1.067h1.067v-1.067zm-2.667 4.8h-1.067v1.067H22.4v-1.067zm0 2.134h-1.067v1.067H22.4v-1.067zm1.066-1.067h-1.067v1.067h1.067v-1.067zm-2.132 0h-1.067v1.067h1.067v-1.067zM16 24.256h-1.067v1.067H16v-1.067zm0 2.133h-1.067v1.067H16v-1.067zm1.067-1.067H16v1.067h1.067v-1.067zm-2.134 0h-1.066v1.067h1.066v-1.067zm-9.066-19.2H4.8v1.066h1.067V6.122zm0 2.134H4.8v1.066h1.067V8.256zm1.066-1.067H5.866v1.067h1.066V7.189zm-2.133 0H3.733v1.067H4.8V7.189z"/><path fill="var(--color5, #212121)" d="M24.715 14.16a1.774 1.774 0 0 0-1.179-.703l-.009-.001a1.769 1.769 0 0 0-1.344.355l.004-.003-1.253.96-1.898 1.417-1.358-.541c2.421-1.086 4.113-3.508 4.113-6.32 0-3.823-3.122-6.934-6.961-6.934S7.869 5.5 7.869 9.324c0 1.386.415 2.674 1.12 3.759l-2.768-.024c-.009 0-.016.005-.023.005a.511.511 0 0 0-.159.033l.004-.001c-.013.005-.026.007-.038.013-.006.003-.013.003-.019.006l-3.233 1.596-.001.001-1.893.91a.429.429 0 0 0-.064.036l.001-.001a1.782 1.782 0 0 0-.594 2.306l-.005-.01c.22.424.592.742 1.043.885l.013.003a1.772 1.772 0 0 0 1.388-.133l-.009.005 1.388-.738 2.264-1.169 1.357-.008-5.442 5.415-.001.001-1.339 1.333c-.303.299-.49.714-.49 1.173v.005a1.66 1.66 0 0 0 1.666 1.663h.004a1.67 1.67 0 0 0 1.18-.485l1.314-1.309 1.741-1.3.901.897-3.102 3.088a1.645 1.645 0 0 0-.491 1.174v.004a1.662 1.662 0 0 0 1.666 1.664h.003a1.67 1.67 0 0 0 1.18-.485l4.488-4.472c.007-.006.016-.009.022-.016l5.166-5.658 3.471.494a.474.474 0 0 0 .262-.032c.018-.006.033-.015.05-.023.019-.01.039-.015.058-.027l3.213-2.133c.012-.008.018-.021.029-.03.013-.01.029-.014.041-.026l1.271-1.191c.348-.326.564-.787.564-1.3 0-.4-.132-.769-.355-1.066l.003.005zM2.13 17.77a.706.706 0 0 1-.564.05l.005.001a.717.717 0 0 1-.214-1.258l.002-.001 1.314-.632.316.924.133.389-.992.527zm3.497-1.828l-1.548.8-.255-.746-.184-.537 2.027-1.001-.04 1.484zm15.1-6.62c0 .918-.219 1.785-.599 2.56l-4.181-1.899a1.865 1.865 0 0 0-.782-1.384l-.006-.004 1.463-4.861c2.378.756 4.105 2.974 4.105 5.588zm-11.789 0c0-3.235 2.644-5.867 5.894-5.867.253 0 .5.022.745.053l-1.432 4.753c-.019 0-.037-.006-.057-.006h-.001a1.872 1.872 0 0 0-1.872 1.867 1.873 1.873 0 0 0 1.872 1.867h.001c.695 0 1.295-.383 1.618-.944l3.863 1.755a5.893 5.893 0 0 1-4.737 2.389c-3.25 0-5.894-2.632-5.894-5.867zm5.957.8a.805.805 0 0 1-.805.8h-.002-.001a.804.804 0 0 1-.804-.8c0-.441.361-.8.806-.8s.806.359.806.8zM2.464 25.146a.606.606 0 0 1-.855.001.591.591 0 0 1 0-.844l.962-.959.852.848-.959.955zm3.214 3.734a.606.606 0 0 1-.855.001.591.591 0 0 1 0-.844l.963-.959.852.848-.96.955zm3.482-3.469l-.001.001-1.765 1.76-.852-.848 1.765-1.757a.527.527 0 0 0 .09-.136c.007-.014.02-.026.026-.04.016-.041.019-.085.026-.128.003-.025.014-.048.014-.073 0-.035-.013-.07-.02-.105-.006-.032-.006-.064-.019-.096a.536.536 0 0 0-.092-.138c-.01-.012-.014-.027-.025-.038h-.001l-.001-.002-1.607-1.6c-.017-.017-.039-.024-.058-.038a.563.563 0 0 0-.084-.057l-.003-.001a.415.415 0 0 0-.09-.031l-.003-.001a.502.502 0 0 0-.101-.02h-.002l-.023-.001a.603.603 0 0 0-.075.005h.003c-.036.005-.069.009-.104.021a.512.512 0 0 0-.097.046l.002-.001c-.02.011-.042.015-.061.029l-1.773 1.324-.901-.897 2.399-2.386 4.361 4.289-.928.919zm6.819-7.017c-.015-.002-.03.004-.045.003l-.027-.001a.562.562 0 0 0-.092.008h.003a.484.484 0 0 0-.187.07l.002-.001a.492.492 0 0 0-.083.061c-.013.011-.028.016-.04.029l-4.698 5.146-4.328-4.256 2.833-2.818a.535.535 0 0 0-.378-.911h-.002l-2.219.013.028-1.607 3.104.027a6.928 6.928 0 0 0 4.978 2.101h.003c.438 0 .864-.046 1.28-.122.04.032.08.064.129.085l2.41.96.152.759.178.885-3.003-.427zm4.041.178l-.313-1.558 1.446-1.08.946 1.257-2.08 1.381zm3.754-2.831l-.838.785-.931-1.237.831-.637a.735.735 0 0 1 .543-.143.718.718 0 0 1 .621.71.71.71 0 0 1-.226.521z"/><path fill="var(--color5, #212121)" d="M13.602 18.544l-2.143-2.134a.53.53 0 0 0-.752 0l-2.143 2.134a.535.535 0 0 0 0 .756l2.143 2.134a.53.53 0 0 0 .752 0l2.143-2.134a.532.532 0 0 0 0-.756zm-2.519 1.759l-1.387-1.381 1.386-1.381 1.387 1.381-1.387 1.381zm6.081-15.232l-.258 1.036c.071.018 1.738.452 1.738 2.149h1.067c0-2.017-1.666-2.965-2.547-3.184zm2.547 4.251h-1.067v1.066h1.067V9.322z"/></symbol><symbol id="icon-bird" viewBox="0 0 32 32"><path  d="M35.556 4.976c-1.222.548-2.64.952-4.125 1.142l-.076.008a7.29 7.29 0 0 0 3.193-3.977l.015-.051a14.295 14.295 0 0 1-4.529 1.748l-.093.016a7.287 7.287 0 0 0-12.606 4.981v.004c0 .578.048 1.134.169 1.662-6.06-.295-11.422-3.2-15.024-7.623a7.253 7.253 0 0 0-1.003 3.681v.001a7.307 7.307 0 0 0 3.237 6.059 7.162 7.162 0 0 1-3.327-.915l.036.019v.08a7.325 7.325 0 0 0 5.792 7.152l.048.009a7.086 7.086 0 0 1-1.854.24h-.061.003c-.466 0-.937-.027-1.38-.124.944 2.887 3.623 5.01 6.811 5.077a14.55 14.55 0 0 1-9.025 3.111h-.014.001-.069c-.59 0-1.172-.038-1.743-.11l.068.007c3.14 2.051 6.986 3.271 11.116 3.271h.07-.004c13.413 0 20.747-11.111 20.747-20.743 0-.32-.011-.633-.027-.942a14.673 14.673 0 0 0 3.62-3.727l.033-.052z"/></symbol><symbol id="icon-logo6" ><svg width="89" height="45" fill="" xmlns="http://www.w3.org/2000/svg"><path d="M44.74 20.689a3.085 3.085 0 0 1-.57-1.994v-2.89c0-.885.189-1.558.567-2.019.378-.46 1.028-.69 1.949-.688.865 0 1.48.196 1.843.588.396.5.589 1.112.544 1.729v.679h-1.547v-.688c.005-.225-.01-.45-.045-.673a.662.662 0 0 0-.221-.4.856.856 0 0 0-.561-.156.906.906 0 0 0-.59.165.779.779 0 0 0-.257.44 3.555 3.555 0 0 0-.06.715v3.507c-.025.338.044.677.198.985a.731.731 0 0 0 .31.238.804.804 0 0 0 .399.056.806.806 0 0 0 .548-.159.717.717 0 0 0 .23-.426c.037-.233.053-.468.049-.703v-.711h1.547v.65a2.76 2.76 0 0 1-.535 1.816c-.355.43-.961.644-1.852.644-.891 0-1.564-.23-1.946-.705zM51.186 20.718c-.391-.45-.587-1.105-.587-1.973v-3.04c0-.858.196-1.507.587-1.948.39-.441 1.044-.66 1.961-.659.91 0 1.56.22 1.952.659.39.44.59 1.09.59 1.949v3.04c0 .858-.2 1.516-.597 1.969-.397.453-1.044.679-1.945.679-.9 0-1.567-.23-1.961-.676zm2.682-.73c.14-.28.204-.59.186-.899v-3.721a1.738 1.738 0 0 0-.183-.882.735.735 0 0 0-.316-.243.808.808 0 0 0-.408-.051.82.82 0 0 0-.41.052.746.746 0 0 0-.318.242 1.7 1.7 0 0 0-.185.882v3.739c-.02.31.044.618.185.9a.96.96 0 0 0 .327.222 1.035 1.035 0 0 0 .796 0 .96.96 0 0 0 .326-.223v-.017zM57.55 13.187h1.667l1.253 5.608 1.282-5.608h1.622l.163 8.095H62.34l-.128-5.626-1.238 5.626h-.961l-1.282-5.647-.119 5.647H57.4l.15-8.095zM65.406 13.187h2.596c1.496 0 2.244.766 2.244 2.298 0 1.468-.788 2.2-2.362 2.199h-.885v3.598h-1.602l.01-8.095zm2.218 3.46c.158.018.319.005.471-.04.152-.044.292-.118.41-.216.184-.274.265-.595.231-.914a2.687 2.687 0 0 0-.077-.735.607.607 0 0 0-.118-.222.67.67 0 0 0-.202-.163 1.574 1.574 0 0 0-.715-.13h-.622v2.42h.622zM72.556 13.187h1.721l1.766 8.095h-1.494l-.349-1.867h-1.535l-.36 1.867H70.79l1.766-8.095zm1.471 5.29l-.6-3.397-.599 3.398h1.199zM77.469 13.187h1.122l2.147 4.618v-4.618h1.33v8.095h-1.067l-2.16-4.82v4.82h-1.375l.003-8.095zM85.184 18.195l-1.786-4.997h1.504l1.09 3.21 1.022-3.21h1.47l-1.762 4.997v3.087h-1.538v-3.087zM47.215 24.821v.424h-1.308v3.289h-.548v-3.29h-1.314v-.423h3.17zM51.314 28.534h-.423a.18.18 0 0 1-.119-.035.19.19 0 0 1-.07-.085l-.378-.882H48.51l-.378.882a.248.248 0 0 1-.058.1.187.187 0 0 1-.119.035h-.423l1.603-3.713h.557l1.622 3.698zm-2.654-1.378h1.513l-.64-1.511a2.812 2.812 0 0 1-.12-.35l-.06.197-.058.155-.635 1.509zM54.077 28.17c.1.004.2.004.3 0 .087-.009.173-.024.257-.045.079-.017.156-.04.231-.067.07-.027.141-.06.215-.091v-.835h-.641a.117.117 0 0 1-.11-.06.079.079 0 0 1-.009-.037v-.285h1.244v1.422a2.375 2.375 0 0 1-1.077.38 4.569 4.569 0 0 1-.468.023 2.316 2.316 0 0 1-.808-.138 1.946 1.946 0 0 1-.64-.388 1.79 1.79 0 0 1-.414-.588 1.956 1.956 0 0 1-.147-.77 2.03 2.03 0 0 1 .144-.776c.092-.22.233-.42.413-.588a1.92 1.92 0 0 1 .641-.385c.275-.095.566-.142.859-.139.15 0 .298.011.446.033.13.02.258.05.38.094.113.038.22.088.321.147.099.058.192.123.28.194l-.155.23a.138.138 0 0 1-.052.05.154.154 0 0 1-.073.02.202.202 0 0 1-.099-.03 1.946 1.946 0 0 1-.157-.088 1.384 1.384 0 0 0-.215-.1 1.931 1.931 0 0 0-.295-.082 2.319 2.319 0 0 0-.407-.033 1.793 1.793 0 0 0-.618.103 1.341 1.341 0 0 0-.471.294c-.133.134-.235.29-.298.462a1.838 1.838 0 0 0 0 1.237c.07.175.179.334.32.468.132.127.291.227.468.294.204.064.42.09.635.073zM59.185 28.11h1.75v.424H58.65V24.82h.548l-.013 3.29zM62.756 28.534h-.548V24.82h.548v3.713zM64.794 24.839c.032.017.06.04.083.067l2.343 2.799a.913.913 0 0 1 0-.132v-2.767h.478v3.728h-.276a.246.246 0 0 1-.119-.02.311.311 0 0 1-.086-.071l-2.34-2.796v2.887h-.458v-3.713h.285a.24.24 0 0 1 .09.018zM71.732 24.821v.409H69.79v1.226h1.574v.394H69.79v1.266h1.942v.41h-2.506V24.82h2.506zM14.303 1.893l24.335 6.338v22.208l-24.334-6.335V1.894zM12.743 0v25.183l27.453 7.152V7.155L12.743 0z" fill=""/><path d="M27.456 44.025L0 36.867v-25.18l27.456 7.155v25.183z" fill=""/><path d="M13.198 1.608l24.017 6.258-10.214 9.371-24.02-6.26 10.217-9.37zM12.743 0L0 11.688l27.456 7.154 12.74-11.687L12.743 0zM29.002 42.608l11.194-10.27-11.194-2.919v13.19z" fill=""/></svg></symbol><symbol id="icon-clock" viewBox="0 0 32 32"><path fill="var(--color5, #212121)" d="M31.297 15.301C31.295 6.849 24.442-.002 15.989 0S.686 6.855.688 15.308a15.304 15.304 0 0 0 10.649 14.576.662.662 0 0 0 .529-.065.637.637 0 0 0 .283-.356l3.865-12.25a1.912 1.912 0 1 0-.84-3.635l-5.106-5.107a.637.637 0 0 0-.902.902l5.103 5.109a1.876 1.876 0 0 0 .536 2.309l-3.683 11.673C3.844 25.783.118 17.71 2.799 10.432S13.553-.572 20.831 2.109s11.004 10.754 8.323 18.032a14.042 14.042 0 0 1-7.462 7.973l-.398-1.874a.638.638 0 0 0-1.048-.344l-3.837 3.426a.637.637 0 0 0 .231 1.084l4.899 1.563a.638.638 0 0 0 .819-.74l-.391-1.839a15.255 15.255 0 0 0 9.329-14.089zm-15.305-.637a.638.638 0 1 1 0 1.277.638.638 0 0 1 0-1.277zm2.101 14.864l2.184-1.948.603 2.84-2.787-.892z"/><path fill="var(--color3, #2196f3)" d="M15.354 3.185V4.46a.638.638 0 1 0 1.276 0V3.185a.638.638 0 0 0-1.276 0zM3.876 14.664a.638.638 0 0 0 0 1.276h1.275a.638.638 0 1 0 0-1.276H3.876zM28.108 15.939a.638.638 0 1 0 0-1.276h-1.275a.638.638 0 0 0 0 1.276h1.275z"/></symbol><symbol id="icon-diagram" viewBox="0 0 32 32"><path fill="var(--color3, #2196f3)" d="M14.926 14.965h1.066v4.798h-1.066v-4.798zm4.264 2.132h1.066v2.665H19.19v-2.665zm-8.529 1.599h1.066v1.066h-1.066v-1.066zm-3.198-.533h1.066v1.599H7.463v-1.599z"/><path fill="var(--color5, #212121)" d="M1.599 28.291h25.586a1.6 1.6 0 0 0 1.599-1.599V24.56a1.6 1.6 0 0 0-1.599-1.599h-.533V9.667l3.028-2.868a1.608 1.608 0 1 0-.742-.752l-.004-.01-2.281 2.162v-1.23a1.6 1.6 0 0 0-1.599-1.599H3.731a1.6 1.6 0 0 0-1.599 1.599v15.992h-.533A1.6 1.6 0 0 0 0 24.56v2.132a1.6 1.6 0 0 0 1.599 1.599zM30.384 4.837a.533.533 0 0 1 0 1.066.533.533 0 0 1 0-1.066zM3.198 6.969c0-.294.239-.533.533-.533h21.323c.294 0 .533.239.533.533v2.239l-1.066 1.013V8.036a.534.534 0 0 0-.534-.534H4.798a.534.534 0 0 0-.534.533v13.327c0 .294.239.533.534.533h19.189a.534.534 0 0 0 .534-.533v-9.675l1.066-1.01V22.96H3.198V6.969zm4.798 6.93h-.005a1.6 1.6 0 1 0 1.112 2.748l1.853.93a.535.535 0 0 0 .636-.122l3.939-4.432 3.872 2.902a.534.534 0 0 0 .686-.039l3.365-3.188v8.131H5.331V8.568h18.123v2.661l-3.771 3.572-3.904-2.927a.534.534 0 0 0-.718.071v.001l-3.993 4.493-1.493-.746c.011-.064.017-.128.02-.193a1.6 1.6 0 0 0-1.599-1.599zm.533 1.599a.533.533 0 0 1-1.066 0 .533.533 0 0 1 1.066 0zm3.198 8.528h5.33v.533a.533.533 0 0 1-.533.533h-4.265a.533.533 0 0 1-.533-.533v-.533zm-10.66.534c0-.294.238-.533.533-.533h9.062v.533a1.6 1.6 0 0 0 1.599 1.599h4.265a1.6 1.6 0 0 0 1.599-1.599v-.533h9.062c.294 0 .533.239.533.533v2.132a.533.533 0 0 1-.533.533H1.601a.533.533 0 0 1-.533-.533V24.56z"/></symbol><symbol id="icon-fb" viewBox="0 0 32 32"><path  d="M13.328 5.312h2.923V.224A36.483 36.483 0 0 0 12.143 0h-.157.008C7.781 0 4.895 2.65 4.895 7.52V12H.249v5.688h4.646V32h5.698V17.69h4.462l.707-5.69h-5.168V8.08c0-1.643.443-2.768 2.734-2.768z"/></symbol><symbol id="icon-fone" viewBox="0 0 21 32"><path fill="" d="M18.133 0H3.2C1.436 0 0 1.299 0 2.895v25.082c0 1.596 1.436 2.895 3.2 2.895h14.933c1.764 0 3.2-1.299 3.2-2.895V2.895c0-1.596-1.436-2.895-3.2-2.895zM3.2 1.929h14.933c.589 0 1.067.433 1.067.966v20.258H2.133V2.895c0-.533.478-.966 1.067-.966zm14.933 27.012H3.2c-.589 0-1.067-.431-1.067-.964v-2.895H19.2v2.895c0 .533-.478.964-1.067.964z"/></symbol><symbol id="icon-telegram" viewBox="0 0 32 32"><path d="M16 0C7.162 0 0 7.162 0 16s7.162 16 16 16 16-7.163 16-16S24.837 0 16 0zm7.863 10.969l-2.625 12.369c-.181.881-.712 1.087-1.45.681l-4-2.956-1.919 1.869c-.225.219-.4.4-.8.4-.519 0-.431-.194-.606-.688L11.1 18.169l-3.956-1.231c-.856-.262-.862-.85.194-1.269l15.412-5.95c.7-.319 1.381.169 1.113 1.25z"/></symbol><symbol id="icon-letter" viewBox="0 0 16 12"><path d="M14.5 0h-13C.673 0 0 .628 0 1.4v8.402c0 .772.673 1.4 1.5 1.4h13c.827 0 1.5-.628 1.5-1.4V1.4c0-.772-.673-1.4-1.5-1.4zm0 .933c.068 0 .133.014.192.037L8 6.384 1.308.97A.529.529 0 0 1 1.5.933h13zm0 9.335h-13c-.276 0-.5-.209-.5-.466V1.956l6.672 5.398A.52.52 0 0 0 8 7.468a.52.52 0 0 0 .328-.114L15 1.956v7.846c0 .257-.224.466-.5.466z" fill=""/></symbol></defs></svg>