<!-- Generated by IcoMoon.io -->
<svg version="1.1" xmlns="http://www.w3.org/2000/svg" width="21" height="32" viewBox="0 0 21 32">
<title>cell</title>
<path fill="#757575" d="M18.133 0h-14.933c-1.765 0-3.2 1.298-3.2 2.894v25.083c0 1.596 1.435 2.894 3.2 2.894h14.933c1.765 0 3.2-1.298 3.2-2.894v-25.083c0-1.596-1.435-2.894-3.2-2.894zM3.2 1.929h14.933c0.589 0 1.067 0.432 1.067 0.965v20.259h-17.067v-20.259c0-0.532 0.478-0.965 1.067-0.965zM18.133 28.941h-14.933c-0.589 0-1.067-0.432-1.067-0.965v-2.894h17.067v2.894c0 0.532-0.478 0.965-1.067 0.965z"></path>
</svg>
