<!-- Generated by IcoMoon.io -->
<svg version="1.1" xmlns="http://www.w3.org/2000/svg" width="47" height="32" viewBox="0 0 47 32">
<title>envelope</title>
<path fill="#2196f3" d="M42.182 0h-37.818c-2.406 0-4.364 1.77-4.364 3.947v23.679c0 2.176 1.957 3.947 4.364 3.947h37.818c2.406 0 4.364-1.77 4.364-3.947v-23.679c0-2.176-1.958-3.947-4.364-3.947zM42.182 2.631c0.198 0 0.385 0.037 0.557 0.102l-19.466 15.259-19.467-15.259c0.172-0.065 0.36-0.102 0.558-0.102h37.818zM42.182 28.941h-37.818c-0.803 0-1.455-0.59-1.455-1.316v-22.113l19.41 15.215c0.274 0.215 0.614 0.321 0.953 0.321s0.679-0.107 0.953-0.321l19.41-15.215v22.113c0 0.726-0.652 1.315-1.455 1.315z"></path>
</svg>
